<svg xmlns="http://www.w3.org/2000/svg" viewBox="0 0 375 812"><g opacity=".12"><circle cx="71" cy="737" r="25"/><circle cx="304" cy="737" r="25"/></g><g fill="#fff"><path d="M359 21v4a2.17 2.17 0 0 0 0-4zm-4.17-3.67h-15.66A3.17 3.17 0 0 0 336 20.5v5a3.17 3.17 0 0 0 3.17 3.17h15.66A3.17 3.17 0 0 0 358 25.5v-5a3.17 3.17 0 0 0-3.17-3.17zM357 25.5a2.17 2.17 0 0 1-2.17 2.17h-15.66A2.17 2.17 0 0 1 337 25.5v-5a2.17 2.17 0 0 1 2.17-2.17h15.66A2.17 2.17 0 0 1 357 20.5z" opacity=".4"/><path d="M252.5 798h-129a2.5 2.5 0 0 0 0 5h129a2.5 2.5 0 0 0 0-5zm51.5-65a4 4 0 1 0 4 4 4 4 0 0 0-4-4zm9-2h-2.56a2 2 0 0 1-1.9-1.37l-.08-.26a2 2 0 0 0-1.9-1.37h-5.1a2.03 2.03 0 0 0-1.92 1.39l-.08.24a2 2 0 0 1-1.9 1.37H295a2 2 0 0 0-2 2v10a2 2 0 0 0 2 2h18a2 2 0 0 0 2-2v-10a2 2 0 0 0-2-2zm-9 11a5 5 0 1 1 5-5 5 5 0 0 1-5 5zm6.25-8.5a.75.75 0 1 1 .75-.75.75.75 0 0 1-.75.75zm-15.25-3h2.5v-1H295zm-229.25-2a4.97 4.97 0 0 0 1.39 3.45 4.94 4.94 0 0 1 1.36 3.43V749a1.5 1.5 0 0 0 1.5 1.5h2.5A1.5 1.5 0 0 0 74 749v-14.2a5.23 5.23 0 0 1 1.19-3.22 4.97 4.97 0 0 0 1.06-3.08v-1h-10.5zm3.75 8.25a1.75 1.75 0 0 1 3.5 0v2.5a1.75 1.75 0 0 1-3.5 0zm1.75 3.75a1.25 1.25 0 1 0-1.25-1.25 1.25 1.25 0 0 0 1.25 1.25zm4.5-15.5h-9.5a.5.5 0 0 0-.5.5v1h10.5v-1a.5.5 0 0 0-.5-.5zM299.33 28.33h1a1 1 0 0 0 1-1v-4a1 1 0 0 0-1-1h-1a1 1 0 0 0-1 1v4a1 1 0 0 0 1 1zm9.34 0h1a1 1 0 0 0 1-1v-8.66a1 1 0 0 0-1-1h-1a1 1 0 0 0-1 1v8.66a1 1 0 0 0 1 1zm-14 0h1a1 1 0 0 0 1-1v-2a1 1 0 0 0-1-1h-1a1 1 0 0 0-1 1v2a1 1 0 0 0 1 1zm9.33 0h1a1 1 0 0 0 1-1V21a1 1 0 0 0-1-1h-1a1 1 0 0 0-1 1v6.33a1 1 0 0 0 1 1zm50.67-9h-15.34a1.33 1.33 0 0 0-1.33 1.34v4.66a1.33 1.33 0 0 0 1.33 1.34h15.34a1.33 1.33 0 0 0 1.33-1.34v-4.66a1.33 1.33 0 0 0-1.33-1.34zm-36.21 3.71a.32.32 0 0 0 0 .46l1.15 1.17a.31.31 0 0 0 .43 0 4.9 4.9 0 0 1 6.58 0 .31.31 0 0 0 .44 0l1.15-1.17a.32.32 0 0 0 0-.46 7.16 7.16 0 0 0-9.75 0zm2.66 2.7a.31.31 0 0 0 0 .45l1.99 2.01a.31.31 0 0 0 .44 0l2-2.01a.31.31 0 0 0-.01-.46 3.42 3.42 0 0 0-4.42 0zm-5.33-5.38a.32.32 0 0 0 0 .46l1.15 1.16a.3.3 0 0 0 .44 0 8.64 8.64 0 0 1 11.9 0 .3.3 0 0 0 .44 0l1.15-1.16a.32.32 0 0 0 0-.46 10.9 10.9 0 0 0-15.08 0zM180 92h15a4 4 0 0 0 4-4V76a4 4 0 0 0-2-3.46V63a6 6 0 0 1 12 0v6.5a1.5 1.5 0 0 0 3 0V63a9 9 0 0 0-18 0v9h-14a4 4 0 0 0-4 4v12a4 4 0 0 0 4 4z"/></g><g fill="#fff" text-anchor="middle" style="font-family:-apple-system,'SF Pro Display','Helvetica Neue',Helvetica,Arial,sans-serif"><text x="50%" y="174.5" font-size="80" font-weight="200">13:59</text><text x="50%" y="211.25" font-size="22" font-weight="400">Tuesday, December 19</text></g></svg>